<?xml version="1.0" standalone="no"?>
<!DOCTYPE svg PUBLIC "-//W3C//DTD SVG 20010904//EN"
 "http://www.w3.org/TR/2001/REC-SVG-20010904/DTD/svg10.dtd">
<svg version="1.0" xmlns="http://www.w3.org/2000/svg"
 width="512.000000pt" height="512.000000pt" viewBox="0 0 512.000000 512.000000"
 preserveAspectRatio="xMidYMid meet">
<metadata>
Created by potrace 1.14, written by Peter Selinger 2001-2017
</metadata>
<g transform="translate(0.000000,512.000000) scale(0.100000,-0.100000)"
fill="#000000" stroke="none">
<path d="M0 2560 l0 -2560 2560 0 2560 0 0 2560 0 2560 -2560 0 -2560 0 0
-2560z m3698 1735 c113 -136 228 -335 296 -512 45 -116 103 -354 116 -473 5
-52 10 -158 10 -236 0 -127 3 -150 30 -241 44 -147 69 -276 76 -383 3 -52 7
-109 10 -126 l4 -31 125 30 c68 17 127 28 131 24 4 -3 11 -62 17 -130 l10
-123 150 23 c82 13 151 22 153 20 2 -2 -34 -104 -80 -228 -45 -123 -94 -254
-107 -291 l-24 -68 -177 0 -177 0 -36 -115 c-34 -109 -37 -115 -63 -115 -15 0
-132 7 -261 15 -208 13 -236 13 -263 -1 -16 -8 -70 -31 -120 -50 -332 -127
-817 -177 -1353 -140 -441 30 -637 68 -793 152 l-84 45 -121 -26 c-328 -71
-440 -95 -448 -95 -5 0 -36 42 -70 93 -34 50 -62 92 -63 93 -1 0 -53 -4 -117
-10 l-117 -12 -6 116 c-3 63 -9 163 -12 223 l-7 107 29 0 c15 0 121 -9 236
-21 114 -12 214 -19 221 -16 7 3 35 55 62 116 l48 110 33 -14 32 -13 0 241 c1
530 83 1004 264 1520 28 81 56 147 61 147 14 0 242 -126 310 -172 162 -108
312 -243 404 -361 l45 -58 76 7 c42 3 85 9 97 13 12 3 48 38 80 76 302 361
701 677 1081 856 117 55 225 99 235 96 4 -1 29 -29 57 -62z"/>
<path d="M3439 4132 c-163 -76 -235 -116 -372 -207 -248 -165 -479 -377 -672
-616 -37 -46 -75 -87 -84 -90 -20 -7 -291 -33 -294 -28 -87 133 -265 321 -379
402 -87 62 -259 167 -274 167 -14 0 -104 -268 -148 -447 -100 -400 -140 -727
-141 -1165 0 -142 -1 -258 -2 -258 -1 0 -25 9 -53 20 l-51 20 -8 -23 c-5 -12
-20 -50 -34 -84 l-25 -62 46 -10 c26 -5 75 -15 110 -22 42 -8 66 -18 73 -30 9
-18 5 -19 -48 -19 -32 0 -170 7 -308 15 -137 8 -276 15 -309 15 l-58 0 4 -100
c2 -54 6 -101 9 -104 3 -3 177 6 387 20 210 14 389 23 397 20 8 -3 15 -9 15
-14 0 -4 -130 -26 -290 -47 -159 -21 -290 -42 -290 -47 0 -5 18 -38 41 -73 34
-54 45 -64 62 -60 12 3 145 32 296 65 l274 59 66 -43 c118 -79 262 -124 481
-153 164 -21 828 -25 1000 -5 250 29 493 88 653 160 l82 37 254 5 254 5 23 67
c12 36 25 76 29 87 6 20 2 20 -105 23 l-110 3 15 23 c16 22 17 22 298 22 l282
0 58 158 c31 86 57 162 57 168 0 7 -37 5 -112 -8 -61 -10 -113 -16 -115 -15
-1 2 -7 57 -13 122 -7 66 -13 121 -15 123 -3 3 -266 -52 -300 -62 -6 -2 -11
57 -12 163 -2 175 -19 318 -57 486 -14 57 -27 154 -30 225 -15 273 -60 535
-120 694 -60 159 -250 468 -291 473 -11 2 -77 -23 -146 -55z m157 -170 c139
-237 209 -487 265 -946 11 -94 29 -225 40 -291 47 -293 62 -537 39 -670 -4
-27 -6 -52 -5 -53 2 -2 86 16 187 40 l183 44 3 -29 c2 -16 2 -31 -1 -33 -2 -2
-90 -22 -196 -43 l-193 -39 6 24 c4 16 2 24 -6 24 -19 -1 -925 -228 -913 -229
6 -1 210 40 454 89 244 50 446 88 449 85 3 -3 -8 -39 -25 -81 l-31 -75 32 6
c80 14 580 85 596 85 17 0 17 -3 -3 -50 -17 -41 -25 -50 -46 -50 -15 -1 -159
-14 -321 -29 -162 -16 -296 -27 -298 -25 -2 1 4 14 14 28 9 15 15 28 13 31 -2
2 -247 -32 -544 -75 -297 -43 -533 -78 -524 -79 9 -1 240 19 514 44 274 25
500 44 502 41 7 -7 -77 -85 -132 -122 l-50 -34 227 0 228 0 -12 -25 c-11 -24
-12 -25 -112 -20 -56 3 -163 8 -239 11 -119 5 -136 8 -120 20 15 11 -37 13
-347 12 -354 -1 -359 -1 -170 -9 107 -5 260 -12 340 -15 l145 -7 -65 -29
c-160 -73 -391 -136 -662 -180 -116 -19 -173 -22 -458 -22 -293 -1 -337 1
-445 21 -206 38 -348 86 -475 161 l-45 26 55 13 55 12 -55 -5 c-30 -3 -57 -9
-60 -14 -3 -4 -149 -36 -325 -70 -305 -59 -320 -61 -333 -43 -11 15 -10 19 5
25 10 3 151 25 313 48 162 23 301 44 309 46 10 3 -2 20 -35 52 l-49 47 45 3
c25 2 106 7 180 11 l135 8 -188 2 c-113 0 -186 -3 -182 -8 8 -14 -64 -19 -390
-31 -159 -6 -318 -13 -352 -16 l-63 -6 0 41 0 41 395 -7 395 -6 -26 57 c-14
32 -23 60 -20 63 3 3 88 -10 188 -30 100 -20 183 -35 185 -34 2 2 -80 26 -182
52 -102 27 -191 53 -198 57 -16 10 -16 567 1 738 26 256 73 555 118 735 33
133 98 325 110 325 7 0 55 -28 106 -62 128 -85 288 -246 369 -371 64 -98 64
-99 99 -93 19 2 113 13 209 22 l173 18 61 80 c288 382 591 632 977 807 58 26
110 48 115 48 6 0 33 -39 61 -87z m-2502 -2136 c78 -22 114 -41 101 -54 -6 -6
-199 29 -208 38 -8 7 1 40 12 40 3 0 46 -11 95 -24z"/>
<path d="M3170 2334 c-368 -165 -577 -283 -687 -386 -63 -61 -83 -94 -83 -140
l0 -33 18 35 c16 34 21 36 132 62 157 37 317 85 364 109 65 34 113 78 201 189
46 59 116 137 155 173 39 37 69 67 68 66 -2 0 -77 -34 -168 -75z"/>
<path d="M1461 2158 c20 -18 60 -71 91 -118 75 -118 97 -134 215 -160 54 -11
123 -29 153 -38 51 -16 55 -20 61 -52 4 -28 7 -31 13 -17 24 52 -23 124 -127
198 -94 66 -202 121 -407 206 l-35 15 36 -34z"/>
<path d="M2968 1753 c7 -3 16 -2 19 1 4 3 -2 6 -13 5 -11 0 -14 -3 -6 -6z"/>
<path d="M1523 1523 c9 -2 23 -2 30 0 6 3 -1 5 -18 5 -16 0 -22 -2 -12 -5z"/>
<path d="M2438 1518 c7 -7 12 -24 12 -40 0 -72 -120 -79 -218 -12 l-58 40 -41
-26 c-88 -56 -173 -64 -173 -17 0 13 5 28 12 35 7 7 8 12 2 12 -15 0 -44 -33
-44 -50 0 -7 18 -32 40 -56 29 -32 42 -40 47 -29 5 7 42 31 83 52 l75 39 50
-38 c27 -20 68 -43 91 -49 26 -8 48 -22 55 -36 15 -28 26 -29 34 -3 3 11 22
38 41 61 19 22 34 52 34 66 0 34 -17 63 -37 63 -13 0 -14 -3 -5 -12z"/>
</g>
</svg>
