<svg xmlns="http://www.w3.org/2000/svg" width="398.8" height="287.1" viewBox="0 0 398.8 287.1" preserveAspectRatio="xMidYMid slice"><path fill-rule="evenodd" clip-rule="evenodd" fill="#FFF" d="M43.4 228.8l9.4-20.6 5.7 2.7c-2.8-57.5 6.8-117.1 28.2-170.3 27.3 13.8 49.5 27.8 67.8 52.9l16.8-1.8C203.7 50.5 244.4 18.3 293.6 0c44 49.9 43.8 106.9 42 126.2 7.2 22.4 10.6 38.5 10.4 57.8l23.6-5.8 1.9 23.4 27.3-4.3-19.2 52.5h-31.4l-6.3 20.4-46.1-2.7c-25.2 14.1-78.1 22.3-126.1 18.7-45.9-3.5-63.6-4-84.5-18l-51.3 11-11.2-16.9-20.6 2.2L0 224.3l43.4 4.5z"/><path fill-rule="evenodd" clip-rule="evenodd" d="M185.4 251.2c7.1-.6 6.9 10 .2 13.6l-3 6.1-3.1-5c-4.2-.4-9.6-3-16.1-9.1-5.3 4-9.6 5.8-12.9 6.3l-1.9 3.7-2.6-4c-5.7-1.9-5.3-9.6 1.2-9.8-5 1.3-6.2 15.8 16.5.5 20.6 18 29.9 1.7 21.7-2.3zm-38.7-19.5c-.1-8.8-.5-7.2-24.8-12.5-12.4-2.7-14-20.6-26-26.7 7.6 3 61.7 23 50.8 39.2zm37.2-1.8c-8.8-20 71.5-50.7 85.7-58-21.3 13-25 34.7-45.3 41.7-33.6 11.5-38.4 5.3-40.4 16.3zm148.6-32.8l28.1-6.2 1.9 22.3 21.1-3.3-11 30h-49.8c-1.1 1.5-2.2 3-3.4 4.4l20.2-.4-5 16-43.4.5c-32.6 15.5-65 20-116.6 19.5-35.4-.3-67.1-2.3-87.1-19.4L34.7 272l-8-13 52.7-7.1c-.6-.8-1.1-1.5-1.7-2.3l-70 4.5-1-19 65.3 3.6c-.5-1.2-.9-2.4-1.4-3.6l-19.9-4 6-15 10.1 3.6c-2-12.4-2.1-27.5-.1-45.6.5-29.8 7.9-79.3 24.4-121.2 25.6 13.4 42.2 26.7 58.7 51.4l26.9-2.8c30.2-39.6 65.8-69.1 112.5-87.1 27.4 36.8 33.4 55.8 36.4 116.8 7.3 26.5 8 47.7 6.9 65.9zM94.7 254.7c-.5-.3-1-.7-1.5-1.1l-58.7 8.3 2 4 58.2-11.2zM84 244.6c-.6-.8-1.2-1.6-1.8-2.5l-70.6-1.3v7l72.4-3.2zm-7-13.9c-.3-1-.5-2-.7-3.1l-17.7-4.7-1 4 19.4 3.8zm213 19.2c-1.5.9-3 1.7-4.6 2.5l43.2 1.5 2-4H290zm21.7-20.7c-1.2 2.1-2.6 4.1-4.1 6l58-5.3 4-9-57.9 8.3zm7.3-19c-.3 1.6-.7 3.1-1.2 4.7l34.7-7v-6l-33.5 8.3zM284.5 27.4c-52.7 21.4-76.8 48.9-102.5 83.3l-37.6 4c-10.5-20.5-27.5-36.9-48-47.9C79.6 112.1 73.6 174.5 75.6 222c.1 1.9.3 3.8.6 5.6l42.3 11.3-41.6-8.2c1.1 4.1 2.9 8 5.2 11.5l40.4.7-38.6 1.7c2.6 3.3 5.7 6.3 9.3 9l26.3-3.7-24.9 4.8c41.9 29.7 142.2 22.8 190.7-2.3l-73.8-2.5h78.4c6.2-3.6 11.4-7.6 15.2-11.9.8-.9 1.6-1.8 2.4-2.8l-105 9.7 109.2-15.7c2.7-4.5 4.7-9.3 6.1-14.3l-94.3 19 95.5-23.7c5-22.7 0-48.8-3.5-70.5-4.4-27-4.5-74.3-31-112.3z"/></svg>
